<?xml version="1.0" encoding="UTF-8" standalone="no"?>
<!-- Created with Inkscape (http://www.inkscape.org/) -->

<svg
   xmlns:dc="http://purl.org/dc/elements/1.1/"
   xmlns:cc="http://creativecommons.org/ns#"
   xmlns:rdf="http://www.w3.org/1999/02/22-rdf-syntax-ns#"
   xmlns:svg="http://www.w3.org/2000/svg"
   xmlns="http://www.w3.org/2000/svg"
   xmlns:sodipodi="http://sodipodi.sourceforge.net/DTD/sodipodi-0.dtd"
   xmlns:inkscape="http://www.inkscape.org/namespaces/inkscape"
   width="564"
   height="420"
   viewBox="0 0 149.225 111.125"
   version="1.1"
   id="svg8"
   sodipodi:docname="gone-home.svg"
   inkscape:version="0.92.3 (2405546, 2018-03-11)"
   inkscape:export-xdpi="217.87"
   inkscape:export-ydpi="217.87">
  <title
     id="title830">Gone Home</title>
  <defs
     id="defs2">
    <inkscape:path-effect
       effect="spiro"
       id="path-effect838"
       is_visible="true" />
  </defs>
  <sodipodi:namedview
     id="base"
     pagecolor="#ffffff"
     bordercolor="#666666"
     borderopacity="1.0"
     inkscape:pageopacity="0.0"
     inkscape:pageshadow="2"
     inkscape:zoom="1.4"
     inkscape:cx="216.26042"
     inkscape:cy="222.23313"
     inkscape:document-units="px"
     inkscape:current-layer="layer3"
     showgrid="false"
     units="px"
     inkscape:window-width="1920"
     inkscape:window-height="986"
     inkscape:window-x="-11"
     inkscape:window-y="-11"
     inkscape:window-maximized="1"
     showguides="true"
     inkscape:guide-bbox="true"
     inkscape:snap-global="true"
     inkscape:snap-nodes="true"
     inkscape:snap-text-baseline="true"
     inkscape:snap-bbox="true">
    <sodipodi:guide
       position="-18.520833,99.21875"
       orientation="0,1"
       id="guide921"
       inkscape:locked="false"
       inkscape:label="Hat Anchor"
       inkscape:color="rgb(0,0,255)" />
    <sodipodi:guide
       position="74.6125,124.35417"
       orientation="1,0"
       id="guide937"
       inkscape:locked="false"
       inkscape:label="Center"
       inkscape:color="rgb(0,0,255)" />
    <sodipodi:guide
       position="23.547917,124.35417"
       orientation="1,0"
       id="guide824"
       inkscape:locked="false"
       inkscape:label="Left"
       inkscape:color="rgb(234,43,47)" />
    <sodipodi:guide
       position="125.67708,124.35417"
       orientation="1,0"
       id="guide826"
       inkscape:locked="false"
       inkscape:label="Right"
       inkscape:color="rgb(35,190,27)" />
    <sodipodi:guide
       position="-18.520833,70.64375"
       orientation="0,1"
       id="guide828"
       inkscape:locked="false"
       inkscape:label="Symbol Center"
       inkscape:color="rgb(0,0,255)" />
    <sodipodi:guide
       position="-18.520833,26.458333"
       orientation="0,1"
       id="guide830"
       inkscape:locked="false"
       inkscape:label="Text Center"
       inkscape:color="rgb(0,0,255)" />
  </sodipodi:namedview>
  <metadata
     id="metadata5">
    <rdf:RDF>
      <cc:Work
         rdf:about="">
        <dc:format>image/svg+xml</dc:format>
        <dc:type
           rdf:resource="http://purl.org/dc/dcmitype/StillImage" />
        <dc:title>Gone Home</dc:title>
        <dc:date>2018-10-09</dc:date>
        <dc:creator>
          <cc:Agent>
            <dc:title>Björn Larsson</dc:title>
          </cc:Agent>
        </dc:creator>
        <dc:rights>
          <cc:Agent>
            <dc:title>(C) Björn Larsson 2018</dc:title>
          </cc:Agent>
        </dc:rights>
        <dc:source>http://tankarochkuriosa.se/gone-home-scout-symbol/</dc:source>
        <dc:relation>https://www.pinterest.se/pin/241787073727784568/</dc:relation>
        <dc:description>In the middle, the scout symbol for going home. On each sida a standing scout with hat and walking stick, facing the symbol with bowed head. In the middle, under the symbol, is the text Gone Home.</dc:description>
        <dc:language>English</dc:language>
        <dc:subject>
          <rdf:Bag>
            <rdf:li>Gone Home</rdf:li>
            <rdf:li>scouts</rdf:li>
            <rdf:li>scouting</rdf:li>
            <rdf:li>symbol</rdf:li>
          </rdf:Bag>
        </dc:subject>
      </cc:Work>
    </rdf:RDF>
  </metadata>
  <g
     inkscape:label="Symbol"
     inkscape:groupmode="layer"
     id="layer1"
     transform="translate(0,-185.87498)"
     style="display:inline">
    <g
       id="g832">
      <circle
         r="4.3932428"
         cy="226.35623"
         cx="74.612503"
         id="path834"
         style="fill:#000000;fill-opacity:1;stroke:none;stroke-width:0.29657444;stroke-miterlimit:4;stroke-dasharray:none;stroke-opacity:1" />
      <circle
         r="19.211847"
         cy="226.35623"
         cx="74.612503"
         id="path829"
         style="fill:none;fill-opacity:1;stroke:#000000;stroke-width:2;stroke-miterlimit:4;stroke-dasharray:none;stroke-opacity:1" />
    </g>
  </g>
  <g
     inkscape:groupmode="layer"
     id="layer2"
     inkscape:label="Text"
     style="display:inline">
    <text
       xml:space="preserve"
       style="font-style:normal;font-weight:normal;font-size:10.58333302px;line-height:1.25;font-family:sans-serif;letter-spacing:0px;word-spacing:0px;fill:#000000;fill-opacity:1;stroke:none;stroke-width:0.26458332"
       x="74.70874"
       y="82.061127"
       id="text834"><tspan
         sodipodi:role="line"
         id="tspan832"
         x="74.70874"
         y="82.061127"
         style="font-style:normal;font-variant:normal;font-weight:normal;font-stretch:normal;font-family:Elephant;-inkscape-font-specification:Elephant;text-align:center;text-anchor:middle;stroke-width:0.26458332">GONE</tspan><tspan
         sodipodi:role="line"
         x="74.70874"
         y="95.54705"
         style="font-style:normal;font-variant:normal;font-weight:normal;font-stretch:normal;font-family:Elephant;-inkscape-font-specification:Elephant;text-align:center;text-anchor:middle;stroke-width:0.26458332"
         id="tspan836">HOME</tspan></text>
  </g>
  <g
     inkscape:groupmode="layer"
     id="layer3"
     inkscape:label="Scouts"
     style="display:inline">
    <path
       transform="translate(0,-185.87498)"
       style="display:inline;fill:#000000;fill-opacity:0.99807691;stroke:none;stroke-width:0.26458332px;stroke-linecap:butt;stroke-linejoin:miter;stroke-opacity:1"
       d="m 22.545396,197.65772 c -0.398721,0.0203 -0.592288,0.20493 0.228926,0.86198 1.700893,1.6064 2.837826,3.67295 -0.480074,7.17579 -3.917193,4.13554 -5.16816,5.33559 -5.16816,5.33559 0,0 -5.989962,4.09351 -1.714107,11.48767 4.275856,7.39416 3.081173,8.14582 1.629358,11.86439 -2.430074,6.22422 -0.08692,14.65643 2.147156,20.95428 0.52735,1.48656 -2.938322,2.72334 -2.938322,2.72334 0,0 -2.073589,2.96327 -0.01344,12.35118 1.812239,8.2582 1.333447,11.73462 0.344681,14.37948 -0.322134,0.86167 -0.541473,0.1393 -0.587044,-0.0522 -0.168403,-0.70787 -1.385109,-1.83898 -1.845365,0.13799 -0.500609,2.15031 -2.085553,1.80208 -2.033984,0.1137 0.04654,-1.52368 0.161747,-2.30892 0.161747,-2.30892 -0.975339,0.1356 -1.356346,0.27161 -1.644861,0.58396 -0.191859,0.2339 -0.220658,0.63562 -0.220658,1.0113 0,0.37585 0.02687,1.25729 0.02687,1.25729 0,0 -0.0053,0.49 -0.606681,0.58188 -0.6013558,0.0919 -1.3336773,1.34736 0.05891,1.61799 1.453872,0.28254 2.845044,-0.14996 3.406511,-0.41186 2.496272,-1.04114 4.799614,-0.61908 7.082771,0.11162 0.673106,0.21542 1.14579,0.38631 1.886707,0.38499 0.822147,-0.001 1.792979,-0.0246 2.782775,-0.0946 0.308776,-0.0218 1.110991,-0.11388 -0.06666,-0.66508 -1.177657,-0.55124 -1.865881,-0.0753 -2.68149,-0.12661 -0.286635,-0.018 -1.708806,-0.47272 -0.242363,-0.82682 1.626973,-0.39287 4.557636,0.4031 6.328297,-0.83302 1.77066,-1.23613 2.498304,-1.20303 1.882055,0.29817 -0.318733,0.77644 -1.340887,0.8922 -2.083078,0.81752 -1.43247,-0.14413 -0.34427,0.47085 -0.139009,0.56276 0.603168,0.27006 0.778613,0.25224 1.181841,0.2589 0.236153,0.004 0.436342,-0.0858 0.519863,0.43201 0.08352,0.51784 0.558353,0.0234 0.837677,0.0336 0.431469,0.0157 0.864031,0.008 1.294495,0.0419 0.567581,0.044 1.459785,-0.48013 0.01654,-0.68471 -2.579137,-0.36559 -0.771263,-0.89712 -0.473874,-0.90227 0.67795,-0.0117 1.047462,-0.0261 1.552877,0.0894 1.315415,0.30064 2.306251,0.61381 3.740856,1.54564 0.411335,0.26717 1.650029,0.12299 1.650029,0.12299 0,0 0.290872,-7.14944 -0.125055,-25.88628 -0.382498,-17.23082 0.580239,-24.09131 1.878438,-32.1877 0.626171,-3.90543 0.600996,-8.66103 0.318842,-11.31403 -0.22229,-2.09012 0.136575,-5.5043 0.161231,-8.33231 0.02403,-2.75648 0.381524,-5.89089 -1.48673,-8.1349 -0.314746,-0.37805 -0.280718,1.05231 -0.275953,1.58698 0.04746,5.32599 0.02532,15.83831 0.02532,15.83831 0,0 -2.193142,0.46625 -3.243728,3.06751 -0.433211,1.07263 -2.527496,2.45101 -2.527496,2.45101 l -1.755447,-0.03 c 0,0 -0.139427,-7.65547 -2.860291,-10.88099 -0.09279,-0.11001 1.586719,-0.81391 2.732132,-1.46347 1.286888,-0.72979 1.463477,-1.55546 1.463477,-1.55546 0,0 -2.665011,1.11772 -4.482415,1.12189 -1.817365,0.004 -2.839819,-0.96542 -4.403864,-2.88871 -2.120342,-2.24222 0.501081,-3.38294 1.238684,-3.55017 1.091472,-0.24746 2.650483,-0.64079 2.650483,-0.64079 0,0 0.929442,-0.28107 1.324983,0.14418 1.020284,1.0968 1.986706,1.71238 3.117641,3.1905 1.350222,1.76473 2.402086,2.67095 3.542419,3.76876 0.564359,0.54331 1.277914,0.53962 2.056204,0.26407 -0.86352,-0.41354 -2.511218,-1.69097 -3.08043,-2.95899 -0.193661,-0.43141 -0.428008,-0.54279 -0.425815,-0.94568 0.0079,-1.44342 3.097869,-0.67615 3.452503,-3.25355 0.26338,-1.91419 0.454385,-4.43495 -1.376661,-5.76864 -1.948395,-1.41916 -5.727629,-2.15882 -9.697083,0.60461 -1.023739,0.71272 -3.04064,-2.35386 -3.04064,-2.35386 0,0 -0.603801,-0.14381 -1.002522,-0.1235 z m 7.556128,2.00349 c 0.402331,0.003 0.867188,0.0266 1.324983,0.092 1.157552,0.16536 2.772619,0.2658 3.331062,0.17724 0.657521,-0.10428 0.949682,0.0344 1.139984,1.0511 0.25959,1.38666 0.41362,2.13724 0.0057,3.70882 -0.271558,1.04617 -1.063056,1.46488 -1.736328,1.85467 -0.673262,0.38979 -0.885733,-0.154 -0.885733,-0.154 -0.175575,-0.51209 -0.70467,-0.80873 -0.850595,-1.28726 -0.167013,-0.54768 -1.230474,-0.55218 -1.122413,-0.11834 0.144862,0.5816 0.503534,0.52461 0.968933,1.14619 0.283168,0.37818 0.330584,0.87398 -1.015958,0.0708 -1.378897,-0.82249 -2.421186,-1.86662 -2.527493,-2.0438 -0.106307,-0.17717 -0.756076,-1.03316 -1.01596,-2.01951 -0.259884,-0.98635 0.223451,-0.90756 0.602549,-0.55501 0.807688,0.75115 0.737028,0.81033 1.322917,1.36995 1.400857,1.33804 1.027623,-0.30718 0.330729,-0.67334 -0.23217,-0.122 -1.205246,-0.67321 -1.559597,-1.55908 -0.354354,-0.88588 0.519866,-1.01596 0.519866,-1.01596 0,0 0.496819,-0.0498 1.167371,-0.0444 z m -9.444902,8.69355 c 0.235968,0.0102 0.541717,0.0969 0.93741,0.30952 0,0 1.202363,0.68576 1.92288,2.00866 0.956998,1.32494 1.378145,1.99966 2.30632,2.22417 1.012654,0.24493 0.964944,0.81086 0.07906,0.65732 -1.004001,-0.14175 -0.70841,-0.0166 -3.342432,-0.77256 -1.865621,-0.59725 -3.20263,-0.65844 -3.738273,-0.44804 -1.043856,0.41002 -1.430129,-0.002 -0.906921,-0.94929 0.165293,-0.29911 0.367124,-0.6151 1.229382,-1.13481 0.862258,-0.51973 0.723987,-1.26867 0.723987,-1.26867 0,0 0.08068,-0.65685 0.788582,-0.6263 z m 1.11001,5.12061 c 0.900831,0.001 1.830084,0.11214 2.702677,0.29818 2.326916,0.4961 3.059245,1.41748 3.059245,1.41748 0,0 0.07109,2.71648 0.118338,3.18895 0.04725,0.47249 -0.578776,0.39016 -0.578776,0.39016 0,0 -1.052796,-0.0151 -1.582848,0 -0.354556,0.0101 -1.536098,0.18368 0.04703,1.06298 3.27967,1.82162 3.543452,4.51188 3.543452,4.51188 l 0.03566,1.15755 c 0,0 0.366019,0.61435 -2.008145,0.27181 -2.374177,-0.34255 -3.425189,-1.46487 -3.933094,-1.77199 -0.50791,-0.3071 -0.472323,-0.77928 -0.472323,-0.77928 0,0 0.05876,-1.0866 -0.04754,-3.46077 0.188153,-0.82659 -1.146537,-4.83587 -2.023133,-2.22932 -0.252088,0.74971 -0.208989,0.95358 -0.244429,1.96939 -0.03543,1.01582 0.306736,0.67327 0.60203,1.32292 0.295294,0.64965 -0.259711,0.56672 -0.720369,0.54311 -0.460659,-0.0236 -1.441256,-0.44855 -1.441256,-0.44855 0,0 -0.708706,-0.18928 -0.826823,0.6966 -0.118118,0.88592 -0.885734,0.0594 -0.885734,0.0594 0,0 -1.73618,-1.87837 -1.547192,-3.76825 0.188988,-1.88988 0.803272,-2.11408 2.32699,-3.35432 0.952322,-0.77514 2.374864,-1.07966 3.876249,-1.07797 z m 7.641911,6.93808 c 0.09449,0.011 0.194263,0.12142 0.283702,0.37827 0.194485,0.55851 0.14446,1.14823 0.05271,1.62417 -0.119915,0.62209 -0.396232,0.55701 -0.550355,0.12818 -0.203113,-0.56518 -0.225446,-1.13741 -0.144693,-1.57613 0.05801,-0.31517 0.201155,-0.57292 0.358636,-0.55449 z m -5.212602,0.27544 c -0.286385,-0.0153 -0.591871,0.19966 -0.753959,0.6444 -0.391464,1.07409 0.562708,2.54274 1.393713,2.82309 0.980375,0.33072 0.839838,-0.26562 0.436666,-0.47284 -0.241218,-0.12398 -0.403909,-0.14415 -0.507463,-0.4961 -0.111408,-0.37864 0.06759,-0.79963 0.09405,-1.29914 0.04131,-0.77976 -0.2948,-1.17974 -0.663008,-1.19941 z m 15.559774,0.19068 c 0.444981,0.0139 0.670218,0.41069 0.04289,1.74977 -1.378749,2.94298 -4.059184,4.20956 -4.059184,4.20956 0,0 -3.558077,1.87075 -4.159435,2.12132 -0.601356,0.25056 -6.214103,2.08825 -9.554973,0.80202 -3.340869,-1.28624 -3.257052,-3.35743 -3.474207,-4.07572 -0.217156,-0.7183 -0.116788,-2.25517 -0.116788,-2.25517 0.03341,-0.31738 0.350366,-0.36741 0.350366,-0.36741 0,0 2.277404,-0.28094 3.257682,0.85162 1.385658,1.60091 1.718078,2.18916 2.973462,2.53938 1.023945,0.28562 2.73927,0.63478 4.342886,0.0501 1.603616,-0.58467 2.956544,-0.65146 4.125847,-0.61807 1.169304,0.0334 1.420069,-0.40101 1.420069,-0.40101 0,0 0.985668,-0.48444 1.737362,-2.00453 0.751697,-1.5201 1.486628,-1.90431 1.753897,-2.05465 0.250565,-0.1921 0.915143,-0.5612 1.360125,-0.54726 z m -0.362768,5.19038 c 0.351584,0.0295 0.431774,0.58364 0.122989,2.53783 -0.307173,1.944 -0.549833,2.56796 -1.415934,1.35961 -1.314936,-1.83455 -4.736589,-0.74421 -4.146002,-0.25993 0.590592,0.48429 2.75236,0.83892 3.590997,0.95704 0.838633,0.11813 0.602546,1.1219 0.602546,1.1219 0,0 -0.995209,19.29893 -1.07487,26.81283 -0.06198,5.84685 -0.40169,16.36378 -0.86713,24.96334 -0.02261,0.41776 0.207386,1.41076 -1.162719,0.47335 -0.907272,-0.62075 -3.133288,-0.47056 -2.354895,-2.02313 0.892051,-1.77929 -0.922665,-0.15915 -1.10381,0.57206 -0.162859,0.6574 -0.377743,0.72809 -0.824754,-0.32401 -0.305681,-0.71946 -1.386792,-1.35349 -1.920298,-1.56528 -4.184127,-1.66103 -3.961331,-1.09902 -4.217312,-2.46497 -0.878976,-4.69033 0.05613,-10.42911 0.923974,-14.80684 0.835565,-4.21492 1.124199,-4.76302 0.919841,-7.33444 -0.121727,-1.53164 0.08897,-1.49672 0.378272,-0.80202 0.322217,0.77374 0.520597,1.16744 0.511595,0.1912 -0.0191,-2.07226 1.955695,-4.03594 2.371948,-6.89467 0.185266,-1.27227 0.399976,-2.90672 -0.261483,-9.75754 -0.661458,-6.85082 4.057634,-8.17934 4.057634,-8.17934 l -0.735872,-0.88316 c 0,0 -0.701236,0.64941 -1.128096,0.86817 -0.163219,0.0836 -1.477272,0.86588 -0.410311,-0.3669 1.063348,-1.22861 4.881952,-2.7735 7.507034,-3.99201 0.261043,-0.12117 0.476832,-0.21648 0.636656,-0.20309 z m -9.834025,4.83018 c 0.247629,0.0148 0.311978,0.14161 0.02222,0.32248 -0.318923,0.25986 -0.505319,0.72952 -0.452167,1.16065 0.02953,0.51979 -0.50178,0.48421 -0.50178,0.48421 0,0 -0.994934,0.002 -1.364258,-0.0119 -0.480512,-0.0186 -0.891725,0.16309 -1.062983,-0.28939 -0.200425,-0.52954 -0.09396,-0.72671 0.124022,-0.96844 0.13272,-0.14717 0.381857,-0.15809 0.578776,-0.13589 0.479018,0.0539 0.845066,0.79635 1.299147,0.63459 0.208272,-0.0742 0.259553,-0.43275 0.277503,-0.60204 0.01994,-0.18804 -0.177324,-0.26289 0.472321,-0.48731 0.243599,-0.0842 0.45862,-0.11583 0.6072,-0.10697 z m -6.206341,0.51056 c 0.261209,5.3e-4 0.574497,0.009 1.095024,0.0264 0.484754,0.0164 0.450087,0.11567 0.463538,0.41754 0.02375,0.53366 0.0059,0.12077 0.01654,0.67233 0.0086,0.44567 -0.377646,0.34132 -0.593246,0.35502 -0.215597,0.0137 -1.478244,-0.009 -1.96267,-0.0129 -0.484403,-0.004 -0.41928,-0.18546 -0.42168,-0.31316 -0.0059,-0.30883 0.0019,-0.22572 0.0124,-0.7183 0.01062,-0.49804 0.128852,-0.39187 0.605648,-0.40928 v 5.2e-4 c 0.313924,-0.0117 0.52324,-0.0186 0.784448,-0.0181 z m 1.882573,2.23966 c 1.396455,-0.005 2.710897,0.12563 3.121255,0.37672 0.530715,0.32473 0.488056,0.8075 0.395325,1.21698 -1.377294,6.08182 -0.462503,14.44668 -0.462503,14.44668 0,0 0.165032,0.80225 -0.584462,0.98545 -4.293008,1.06909 -6.096253,0.38096 -8.527643,0.0331 -0.65824,-0.0942 -0.566374,-0.75603 -0.566374,-0.75603 0,0 0.329499,-3.20944 -0.342615,-7.00474 -0.655743,-3.70283 -0.529049,-7.10275 0.05684,-8.72402 0.109411,-0.30274 0.03391,-0.54794 0.745691,-0.51314 2.785976,0.1361 3.959868,-5.5e-4 5.563485,-0.0507 0.200452,-0.006 0.401503,-0.01 0.600997,-0.0103 z m -4.890658,18.23661 c 0.05438,6e-5 0.115733,0.006 0.185519,0.0171 0.659822,0.10851 2.848175,0.0582 3.282487,0.0248 0.434313,-0.0334 0.944678,0.11675 1.331701,0.30592 0.321679,0.15724 0.373954,0.55551 0.302824,0.94 -0.358294,3.4831 -0.604549,3.40242 -0.806669,4.55786 -0.09063,0.51809 -0.348806,1.58656 -1.403532,1.02113 -0.869705,-0.46624 -1.662649,-0.74338 -2.597257,-0.64389 -0.469659,0.05 -0.789958,-0.0226 -0.747758,-0.74414 0.10095,-1.7257 0.0013,-3.26711 0.03721,-4.86895 0.0077,-0.34459 0.0348,-0.6102 0.415478,-0.60979 z m 0.110588,6.8952 c 0.265564,0.004 0.536093,0.0201 0.818554,0.0455 0.752034,0.0675 1.61144,0.32035 2.054655,0.92708 0.300866,0.41185 0.208522,0.97894 0.175184,1.52032 -0.04385,0.18942 -0.118627,0.40681 -0.283704,0.50953 -1.067445,0.66424 -2.564632,0.55892 -3.767212,0.19223 -0.861751,-0.26274 -1.676814,-0.92584 -2.163175,-1.62057 -0.547565,-0.78216 0.273232,-1.03244 0.72657,-1.18597 0.890629,-0.30168 1.642436,-0.40031 2.439128,-0.38809 z m -2.002462,4.26072 c 0.319054,0.009 0.672531,0.21471 0.923458,0.35347 0.536111,0.29645 0.613502,1.16888 0.576192,1.8004 -0.118408,0.38349 -0.717074,0.57588 -0.676444,0.98186 0.04116,0.41133 0.539642,0.65197 0.870231,0.20567 0.653181,-0.88178 0.04839,-2.77562 0.957564,-3.12281 0.574698,-0.21947 1.056178,0.82425 1.281059,1.42678 0.667048,1.78726 -0.110606,5.529 -0.557589,7.68118 -0.604408,2.9102 -0.808776,4.18108 -0.561723,6.9324 0.09368,1.04326 -0.745587,0.0174 -0.977201,-0.18759 -2.765799,-2.44811 -3.349701,-10.66904 -2.553333,-15.23835 0.113759,-0.65271 0.398732,-0.84157 0.717786,-0.83301 z m 4.366659,16.32871 c 0.158408,-0.0106 0.386617,0.19703 0.622701,0.38241 1.321112,1.03737 2.922043,1.92558 4.464844,2.43344 2.684704,0.88378 -0.388755,1.73208 -2.32699,1.1808 -1.363009,-0.38766 -2.842363,-1.11317 -2.964677,-3.07061 -0.0429,-0.6865 0.04571,-0.91548 0.204122,-0.92604 z m -2.698544,1.29708 c 0.710147,0.12143 1.370128,0.30908 2.071708,1.53685 0.726449,1.2713 2.438611,2.12959 2.438611,2.12959 -1.127543,1.23613 -3.800285,0.493 -3.800285,0.493 0,0 -1.452923,-0.50111 -1.937349,-1.23611 -0.711244,-1.10167 -0.729522,-2.99142 1.227315,-2.92333 z m -2.266528,4.11292 c 0.297632,-0.0175 0.620667,0.0545 0.896069,0.25425 1.040364,0.75466 1.985409,0.62632 1.985409,0.62632 0.01772,0.37208 -1.626327,1.20323 -2.939872,0.65577 -1.502842,-0.62635 -0.834502,-1.48379 0.05839,-1.53633 z"
       id="path833"
       inkscape:connector-curvature="0" />
    <path
       transform="translate(0,-185.87498)"
       inkscape:connector-curvature="0"
       style="display:inline;fill:#000000;fill-opacity:1;stroke:none;stroke-width:0.26458332px;stroke-linecap:butt;stroke-linejoin:miter;stroke-opacity:1"
       d="m 126.67957,197.65774 c 0.39873,0.0203 0.59229,0.20494 -0.22892,0.86197 -1.7009,1.6064 -2.83785,3.67295 0.48007,7.17579 3.91722,4.13554 5.16819,5.33559 5.16819,5.33559 0,0 5.99,4.09351 1.71412,11.48767 -4.27588,7.39416 -3.08119,8.14582 -1.62937,11.86439 2.43009,6.22422 0.0869,14.65643 -2.14716,20.95428 -0.52736,1.48656 2.93833,2.72334 2.93833,2.72334 0,0 2.0736,2.96327 0.0134,12.35119 -1.81224,8.2582 -1.33345,11.73463 -0.34468,14.37948 0.32214,0.86168 0.54148,0.13929 0.58705,-0.0522 0.1684,-0.70787 1.38511,-1.83899 1.84537,0.13798 0.50062,2.1503 2.08557,1.80208 2.034,0.11369 -0.0465,-1.52368 -0.16175,-2.30891 -0.16175,-2.30891 0.97534,0.1356 1.35635,0.27162 1.64487,0.58395 0.19186,0.2339 0.22066,0.63563 0.22066,1.0113 0,0.37585 -0.0269,1.25729 -0.0269,1.25729 0,0 0.005,0.49 0.60668,0.58188 0.60136,0.0919 1.33369,1.34736 -0.0589,1.61799 -1.45388,0.28254 -2.84505,-0.14996 -3.40652,-0.41186 -2.49629,-1.04114 -4.79965,-0.61908 -7.08282,0.11162 -0.67311,0.21542 -1.14579,0.38631 -1.88671,0.38499 -0.82216,-0.001 -1.79299,-0.0246 -2.7828,-0.0946 -0.30877,-0.0218 -1.11099,-0.11388 0.0667,-0.66508 1.17766,-0.55124 1.86589,-0.0753 2.6815,-0.12661 0.28664,-0.018 1.70882,-0.47272 0.24236,-0.82682 -1.62698,-0.39287 -4.55765,0.4031 -6.32832,-0.83302 -1.77067,-1.23613 -2.49832,-1.20303 -1.88207,0.29817 0.31874,0.77644 1.3409,0.8922 2.08309,0.81752 1.43248,-0.14413 0.34428,0.47085 0.13901,0.56276 -0.60317,0.27006 -0.77862,0.25224 -1.18184,0.2589 -0.23616,0.004 -0.43635,-0.0858 -0.51987,0.43201 -0.0835,0.51784 -0.55836,0.0234 -0.83768,0.0336 -0.43147,0.0157 -0.86404,0.008 -1.2945,0.0419 -0.56759,0.044 -1.4598,-0.48013 -0.0165,-0.68471 2.57915,-0.36559 0.77126,-0.89712 0.47387,-0.90227 -0.67795,-0.0117 -1.04747,-0.0261 -1.55289,0.0894 -1.31542,0.30064 -2.30626,0.61381 -3.74087,1.54564 -0.41134,0.26717 -1.65004,0.12299 -1.65004,0.12299 0,0 -0.29087,-7.14944 0.12506,-25.88628 0.3825,-17.23082 -0.58025,-24.09131 -1.87845,-32.1877 -0.62618,-3.90543 -0.601,-8.66103 -0.31885,-11.31403 0.2223,-2.09012 -0.13657,-5.5043 -0.16123,-8.33231 -0.024,-2.75648 -0.38153,-5.8909 1.48674,-8.13491 0.31475,-0.37805 0.28072,1.05232 0.27595,1.58699 -0.0475,5.32599 -0.0253,15.83831 -0.0253,15.83831 0,0 2.19316,0.46625 3.24375,3.06751 0.43321,1.07263 2.52751,2.45101 2.52751,2.45101 l 1.75546,-0.03 c 0,0 0.13943,-7.65547 2.86031,-10.88099 0.0928,-0.11001 -1.58673,-0.81392 -2.73215,-1.46348 -1.2869,-0.72979 -1.46349,-1.55546 -1.46349,-1.55546 0,0 2.66503,1.11773 4.48244,1.1219 1.81738,0.004 2.83984,-0.96542 4.40389,-2.88871 2.12035,-2.24222 -0.50109,-3.38294 -1.23869,-3.55017 -1.09148,-0.24746 -2.6505,-0.64079 -2.6505,-0.64079 0,0 -0.92944,-0.28107 -1.32499,0.14418 -1.02029,1.0968 -1.98672,1.71238 -3.11766,3.1905 -1.35022,1.76473 -2.40209,2.67095 -3.54244,3.76876 -0.56436,0.54331 -1.27792,0.53962 -2.05621,0.26407 0.86352,-0.41354 2.51123,-1.69098 3.08045,-2.959 0.19366,-0.43141 0.42801,-0.54278 0.42581,-0.94567 -0.008,-1.44342 -3.09788,-0.67615 -3.45252,-3.25355 -0.26338,-1.91419 -0.45439,-4.43495 1.37667,-5.76864 1.94841,-1.41916 5.72766,-2.15882 9.69714,0.60461 1.02374,0.71272 3.04065,-2.35386 3.04065,-2.35386 0,0 0.6038,-0.14381 1.00253,-0.12351 z m -7.55617,2.0035 c -0.40233,0.003 -0.86719,0.0266 -1.32499,0.092 -1.15756,0.16537 -2.77263,0.26581 -3.33108,0.17725 -0.65752,-0.10427 -0.94969,0.0344 -1.13999,1.0511 -0.25959,1.38666 -0.41362,2.13725 -0.006,3.70882 0.27156,1.04618 1.06306,1.46488 1.73634,1.85467 0.67327,0.38978 0.88574,-0.154 0.88574,-0.154 0.17557,-0.51209 0.70467,-0.80874 0.8506,-1.28726 0.16701,-0.54767 1.23048,-0.55219 1.12242,-0.11834 -0.14487,0.58159 -0.50354,0.52461 -0.96894,1.14618 -0.28317,0.3782 -0.33059,0.874 1.01596,0.0708 1.37891,-0.8225 2.4212,-1.86662 2.52751,-2.0438 0.10631,-0.17718 0.75608,-1.03316 1.01596,-2.01952 0.25989,-0.98635 -0.22345,-0.90756 -0.60255,-0.555 -0.80769,0.75115 -0.73703,0.81033 -1.32292,1.36994 -1.40087,1.33804 -1.02763,-0.30718 -0.33073,-0.67334 0.23217,-0.12199 1.20525,-0.6732 1.5596,-1.55908 0.35436,-0.88588 -0.51987,-1.01596 -0.51987,-1.01596 0,0 -0.49682,-0.0498 -1.16737,-0.0444 z m 9.44496,8.69352 c -0.23597,0.0102 -0.54172,0.0969 -0.93742,0.30955 0,0 -1.20237,0.68574 -1.92289,2.00866 -0.957,1.32494 -1.37815,1.99966 -2.30633,2.22415 -1.01266,0.24493 -0.96495,0.81088 -0.0791,0.65733 1.00401,-0.14175 0.70841,-0.0166 3.34245,-0.77257 1.86563,-0.59724 3.20265,-0.65842 3.73829,-0.44803 1.04387,0.41002 1.43014,-0.002 0.90693,-0.9493 -0.16529,-0.29911 -0.36713,-0.6151 -1.22939,-1.13481 -0.86226,-0.51972 -0.72399,-1.26866 -0.72399,-1.26866 0,0 -0.0807,-0.65685 -0.78858,-0.62632 z m -1.11002,5.12062 c -0.90083,0.001 -1.83009,0.11214 -2.70269,0.29818 -2.32693,0.4961 -3.05926,1.41748 -3.05926,1.41748 0,0 -0.0711,2.71648 -0.11834,3.18895 -0.0473,0.47249 0.57878,0.39016 0.57878,0.39016 0,0 1.0528,-0.0151 1.58286,0 0.35455,0.0101 1.5361,0.18368 -0.047,1.06298 -3.27969,1.82162 -3.54348,4.51187 -3.54348,4.51187 l -0.0357,1.15756 c 0,0 -0.36602,0.61435 2.00816,0.27181 2.37419,-0.34254 3.42521,-1.46487 3.93312,-1.77198 0.50791,-0.3071 0.47232,-0.77928 0.47232,-0.77928 0,0 -0.0588,-1.0866 0.0475,-3.46077 -0.18815,-0.82659 1.14654,-4.83588 2.02315,-2.22932 0.25208,0.74971 0.20899,0.95357 0.24443,1.96938 0.0354,1.01582 -0.30674,0.67328 -0.60204,1.32292 -0.29529,0.64965 0.25972,0.56672 0.72038,0.54312 0.46066,-0.0236 1.44126,-0.44855 1.44126,-0.44855 0,0 0.70871,-0.18928 0.82683,0.6966 0.11812,0.88592 0.88574,0.0594 0.88574,0.0594 0,0 1.73619,-1.87837 1.5472,-3.76825 -0.18899,-1.88988 -0.80328,-2.11409 -2.327,-3.35432 -0.95233,-0.77514 -2.37488,-1.07966 -3.87627,-1.07797 z m -7.64195,6.93808 c -0.0945,0.0111 -0.19426,0.12141 -0.2837,0.37827 -0.19449,0.55853 -0.14447,1.14823 -0.0527,1.62419 0.11991,0.62208 0.39623,0.55701 0.55035,0.12816 0.20312,-0.56518 0.22545,-1.13739 0.1447,-1.57613 -0.058,-0.31517 -0.20116,-0.5729 -0.35864,-0.55449 z m 5.21263,0.27544 c 0.28639,-0.0153 0.59187,0.19966 0.75397,0.6444 0.39146,1.07411 -0.56272,2.54274 -1.39373,2.82309 -0.98038,0.33071 -0.83984,-0.26562 -0.43667,-0.47284 0.24123,-0.12399 0.40392,-0.14415 0.50747,-0.4961 0.11141,-0.37864 -0.0676,-0.79963 -0.094,-1.29914 -0.0413,-0.77976 0.2948,-1.17974 0.66301,-1.19941 z m -15.55986,0.19068 c -0.44499,0.0139 -0.67023,0.41071 -0.0429,1.74977 1.37875,2.94298 4.0592,4.20956 4.0592,4.20956 0,0 3.5581,1.87075 4.15946,2.12132 0.60136,0.25055 6.21414,2.08824 9.55503,0.80202 3.34089,-1.28624 3.25707,-3.35744 3.47423,-4.07573 0.21715,-0.71829 0.11679,-2.25516 0.11679,-2.25516 -0.0334,-0.31739 -0.35037,-0.36742 -0.35037,-0.36742 0,0 -2.27742,-0.28093 -3.2577,0.85163 -1.38567,1.60091 -1.71809,2.18916 -2.97348,2.53938 -1.02395,0.28562 -2.73929,0.63478 -4.34291,0.0501 -1.60363,-0.58466 -2.95656,-0.65145 -4.12587,-0.61805 -1.16931,0.0334 -1.42008,-0.40101 -1.42008,-0.40101 0,0 -0.98567,-0.48444 -1.73737,-2.00453 -0.7517,-1.5201 -1.48664,-1.90432 -1.75391,-2.05465 -0.25056,-0.19211 -0.91515,-0.5612 -1.36013,-0.54726 z m 0.36277,5.19038 c -0.35159,0.0295 -0.43178,0.58364 -0.12299,2.53783 0.30717,1.944 0.54983,2.56796 1.41594,1.35961 1.31494,-1.83455 4.73662,-0.74421 4.14603,-0.25993 -0.5906,0.48429 -2.75238,0.83892 -3.59102,0.95704 -0.83864,0.11812 -0.60255,1.1219 -0.60255,1.1219 0,0 0.99521,19.29893 1.07488,26.81283 0.062,5.84685 0.40169,16.36378 0.86713,24.96334 0.0226,0.41776 -0.20739,1.41076 1.16273,0.47335 0.90727,-0.62075 3.1333,-0.47056 2.3549,-2.02313 -0.89205,-1.77929 0.92268,-0.15915 1.10382,0.57206 0.16286,0.6574 0.37775,0.72809 0.82476,-0.32401 0.30568,-0.71946 1.3868,-1.35349 1.92031,-1.56528 4.18415,-1.66103 3.96135,-1.09902 4.21733,-2.46497 0.87899,-4.69033 -0.0561,-10.42911 -0.92397,-14.80684 -0.83558,-4.21492 -1.12421,-4.76302 -0.91985,-7.33444 0.12173,-1.53164 -0.089,-1.49672 -0.37828,-0.80202 -0.32222,0.77374 -0.5206,1.16744 -0.51159,0.1912 0.0191,-2.07227 -1.95571,-4.03594 -2.37196,-6.89467 -0.18527,-1.27228 -0.39998,-2.90672 0.26148,-9.75754 0.66146,-6.85082 -4.05766,-8.17934 -4.05766,-8.17934 l 0.73588,-0.88316 c 0,0 0.70124,0.64941 1.1281,0.86817 0.16322,0.0836 1.47728,0.86588 0.41031,-0.3669 -1.06335,-1.22861 -4.88197,-2.7735 -7.50707,-3.99201 -0.26105,-0.12117 -0.47684,-0.21648 -0.63666,-0.20309 z m 9.83408,4.8302 c -0.24763,0.0148 -0.31198,0.1416 -0.0222,0.32246 0.31893,0.25986 0.50532,0.72952 0.45217,1.16065 -0.0295,0.51979 0.50178,0.48421 0.50178,0.48421 0,0 0.99494,0.002 1.36427,-0.0119 0.48051,-0.0186 0.89173,0.16309 1.06299,-0.28939 0.20042,-0.52954 0.094,-0.7267 -0.12403,-0.96841 -0.13272,-0.14719 -0.38186,-0.15811 -0.57878,-0.13591 -0.47902,0.0539 -0.84507,0.79636 -1.29915,0.63458 -0.20827,-0.0742 -0.25955,-0.43275 -0.2775,-0.60203 -0.0199,-0.18804 0.17732,-0.26288 -0.47233,-0.48731 -0.2436,-0.0841 -0.45862,-0.11583 -0.6072,-0.10696 z m 6.20638,0.51056 c -0.26122,5.3e-4 -0.5745,0.009 -1.09503,0.0264 -0.48476,0.0164 -0.45009,0.11568 -0.46354,0.41755 -0.0238,0.53366 -0.006,0.12077 -0.0165,0.67231 -0.009,0.44567 0.37764,0.34132 0.59324,0.35502 0.2156,0.0137 1.47826,-0.009 1.96269,-0.0129 0.4844,-0.004 0.41928,-0.18546 0.42168,-0.31316 0.006,-0.30883 -0.002,-0.22572 -0.0124,-0.7183 -0.0106,-0.49805 -0.12885,-0.39188 -0.60565,-0.40928 v 5.3e-4 c -0.31393,-0.0117 -0.52325,-0.0186 -0.78446,-0.0181 z m -1.88259,2.23966 c -1.39646,-0.005 -2.71091,0.12563 -3.12127,0.37672 -0.53072,0.32473 -0.48806,0.8075 -0.39533,1.21698 1.3773,6.08182 0.46251,14.44666 0.46251,14.44666 0,0 -0.16504,0.80227 0.58446,0.98547 4.29304,1.06907 6.09629,0.38095 8.5277,0.0331 0.65824,-0.0942 0.56637,-0.75603 0.56637,-0.75603 0,0 -0.3295,-3.20944 0.34262,-7.00474 0.65575,-3.70283 0.52905,-7.10275 -0.0568,-8.72402 -0.10941,-0.30275 -0.0339,-0.54794 -0.7457,-0.51314 -2.78599,0.1361 -3.95989,-5.3e-4 -5.56351,-0.0507 -0.20046,-0.006 -0.40151,-0.01 -0.601,-0.0103 z m 4.89069,18.23661 c -0.0544,6e-5 -0.11574,0.006 -0.18552,0.017 -0.65983,0.1085 -2.84819,0.0582 -3.28251,0.0248 -0.43431,-0.0334 -0.94468,0.11676 -1.33171,0.30593 -0.32168,0.15723 -0.37395,0.5555 -0.30282,0.93999 0.35829,3.4831 0.60455,3.40242 0.80667,4.55786 0.0906,0.51809 0.34881,1.58656 1.40354,1.02113 0.86971,-0.46624 1.66266,-0.74339 2.59727,-0.64389 0.46967,0.05 0.78996,-0.0226 0.74776,-0.74414 -0.10095,-1.7257 -0.001,-3.2671 -0.0372,-4.86895 -0.008,-0.34459 -0.0348,-0.6102 -0.41548,-0.60978 z m -0.11059,6.89519 c -0.26557,0.004 -0.5361,0.0201 -0.81856,0.0455 -0.75204,0.0675 -1.61145,0.32035 -2.05467,0.92708 -0.30087,0.41186 -0.20852,0.97894 -0.17518,1.52032 0.0439,0.18942 0.11863,0.40681 0.2837,0.50953 1.06746,0.66425 2.56465,0.55893 3.76724,0.19223 0.86175,-0.26274 1.67682,-0.92584 2.16318,-1.62057 0.54757,-0.78216 -0.27323,-1.03244 -0.72657,-1.18597 -0.89063,-0.30168 -1.64244,-0.40031 -2.43914,-0.38809 z m 2.00247,4.26072 c -0.31906,0.009 -0.67253,0.21471 -0.92346,0.35347 -0.53612,0.29645 -0.61351,1.16888 -0.5762,1.8004 0.11841,0.38349 0.71708,0.57588 0.67645,0.98185 -0.0412,0.41134 -0.53964,0.65198 -0.87023,0.20568 -0.65319,-0.88178 -0.0484,-2.77562 -0.95757,-3.12281 -0.57471,-0.21947 -1.05619,0.82426 -1.28107,1.42679 -0.66705,1.78726 0.11061,5.52899 0.55759,7.68118 0.60441,2.9102 0.80878,4.18107 0.56173,6.93239 -0.0937,1.04326 0.74559,0.0174 0.9772,-0.18758 2.76582,-2.44811 3.34972,-10.66904 2.55335,-15.23835 -0.11376,-0.65272 -0.39873,-0.84157 -0.71779,-0.83302 z m -4.36668,16.32872 c -0.15841,-0.0106 -0.38662,0.19702 -0.6227,0.38241 -1.32113,1.03737 -2.92207,1.92558 -4.46488,2.43344 -2.68471,0.88377 0.38876,1.73207 2.32701,1.1808 1.36301,-0.38766 2.84238,-1.11317 2.96469,-3.07061 0.0429,-0.6865 -0.0457,-0.91549 -0.20412,-0.92604 z m 2.69856,1.29708 c -0.71016,0.12143 -1.37014,0.30908 -2.07172,1.53685 -0.72645,1.27129 -2.43863,2.12959 -2.43863,2.12959 1.12755,1.23613 3.80031,0.49299 3.80031,0.49299 0,0 1.45293,-0.50111 1.93736,-1.2361 0.71125,-1.10168 0.72952,-2.99143 -1.22732,-2.92333 z m 2.26654,4.11292 c -0.29763,-0.0175 -0.62067,0.0545 -0.89608,0.25425 -1.04037,0.75466 -1.98541,0.62632 -1.98541,0.62632 -0.0177,0.37208 1.62633,1.20323 2.93988,0.65577 1.50285,-0.62636 0.83451,-1.4838 -0.0584,-1.53634 z"
       id="path833-5" />
  </g>
</svg>
